<?xml version="1.0" encoding="UTF-8" standalone="no"?>
<svg
   xmlns:dc="http://purl.org/dc/elements/1.1/"
   xmlns:cc="http://creativecommons.org/ns#"
   xmlns:rdf="http://www.w3.org/1999/02/22-rdf-syntax-ns#"
   xmlns:svg="http://www.w3.org/2000/svg"
   xmlns="http://www.w3.org/2000/svg"
   xmlns:sodipodi="http://sodipodi.sourceforge.net/DTD/sodipodi-0.dtd"
   xmlns:inkscape="http://www.inkscape.org/namespaces/inkscape"
   clip-rule="evenodd"
   fill-rule="evenodd"
   stroke-linejoin="round"
   stroke-miterlimit="2"
   viewBox="0 0 400 400"
   version="1.1"
   id="svg4063"
   sodipodi:docname="logocss.svg"
   width="400"
   height="400"
   inkscape:version="1.0 (4035a4fb49, 2020-05-01)">
  <metadata
     id="metadata4069">
    <rdf:RDF>
      <cc:Work
         rdf:about="">
        <dc:format>image/svg+xml</dc:format>
        <dc:type
           rdf:resource="http://purl.org/dc/dcmitype/StillImage" />
        <dc:title />
      </cc:Work>
    </rdf:RDF>
  </metadata>
  <defs
     id="defs4067" />
  <sodipodi:namedview
     inkscape:document-rotation="0"
     pagecolor="#ffffff"
     bordercolor="#666666"
     borderopacity="1"
     objecttolerance="10"
     gridtolerance="10"
     guidetolerance="10"
     inkscape:pageopacity="0"
     inkscape:pageshadow="2"
     inkscape:window-width="1920"
     inkscape:window-height="1017"
     id="namedview4065"
     showgrid="false"
     inkscape:zoom="1.8732143"
     inkscape:cx="244.01739"
     inkscape:cy="189.18968"
     inkscape:window-x="-8"
     inkscape:window-y="-8"
     inkscape:window-maximized="1"
     inkscape:current-layer="svg4063"
     inkscape:snap-page="true" />
  <path
     id="path4041"
     style="fill:#bfbfbf;fill-opacity:1;fill-rule:nonzero;stroke-width:0.976562"
     d="M 56.769531 78.609375 L 82.560547 367.87305 L 198.28906 400 L 314.33984 367.82617 L 340.15625 78.609375 L 56.769531 78.609375 z M 109.50391 137.73828 L 198.46289 137.73828 L 287.21094 137.73828 L 280.80664 209.54492 L 279.94141 219.07031 L 271.60352 312.4707 L 271.07031 318.46289 L 198.46289 338.58789 L 198.46289 338.5918 L 198.30078 338.63867 L 125.62891 318.46289 L 120.6582 262.75977 L 156.27148 262.75977 L 158.79688 291.05469 L 198.30859 301.72266 L 198.33984 301.71484 L 198.33984 301.71094 L 237.9082 291.03125 L 242.02734 245.02148 L 198.46289 245.02148 L 119.07227 245.02148 L 115.89258 209.54492 L 198.46289 209.54492 L 245.10352 209.54492 L 248.33203 173.21484 L 198.46289 173.21484 L 112.72852 173.21484 L 109.50391 137.73828 z " />
  <g
     style="fill-rule:nonzero"
     id="g4051"
     fill="#ebebeb"
     transform="matrix(0.97656246,0,0,0.97656246,-1.5361445,-1.6021098e-6)" />
  <path
     style="fill:#bfbfbf;fill-opacity:1;fill-rule:nonzero;stroke-width:0.976562"
     id="path4053"
     d="m 123.46386,-1.6021098e-6 h 42.96875 V 17.968748 H 141.4326 v 17.968749 h 25.00001 v 17.968749 h -42.96875 z" />
  <path
     style="fill:#bfbfbf;fill-opacity:1;fill-rule:nonzero;stroke-width:0.976562"
     id="path4055"
     d="m 175.02636,-1.6021098e-6 h 42.96875 V 15.624998 H 192.9951 v 3.125 h 25.00001 V 54.687496 H 175.02636 V 38.281247 h 24.99999 v -3.125 h -24.99999 z" />
  <path
     style="fill:#bfbfbf;fill-opacity:1;fill-rule:nonzero;stroke-width:0.976562"
     id="path4057"
     d="m 226.58886,-1.6021098e-6 h 42.96875 V 15.624998 H 244.5576 v 3.125 h 25.00001 V 54.687496 H 226.58886 V 38.281247 h 24.99999 v -3.125 h -24.99999 z" />
</svg>
