<?xml version="1.0" encoding="UTF-8" standalone="no"?>
<svg
   xmlns:dc="http://purl.org/dc/elements/1.1/"
   xmlns:cc="http://creativecommons.org/ns#"
   xmlns:rdf="http://www.w3.org/1999/02/22-rdf-syntax-ns#"
   xmlns:svg="http://www.w3.org/2000/svg"
   xmlns="http://www.w3.org/2000/svg"
   xmlns:sodipodi="http://sodipodi.sourceforge.net/DTD/sodipodi-0.dtd"
   xmlns:inkscape="http://www.inkscape.org/namespaces/inkscape"
   inkscape:version="1.0 (4035a4fb49, 2020-05-01)"
   sodipodi:docname="logops.svg"
   xml:space="preserve"
   style="enable-background:new 0 0 240 234;"
   viewBox="0 0 240 234"
   y="0px"
   x="0px"
   id="Layer_1"
   version="1.1"><metadata
   id="metadata1610"><rdf:RDF><cc:Work
       rdf:about=""><dc:format>image/svg+xml</dc:format><dc:type
         rdf:resource="http://purl.org/dc/dcmitype/StillImage" /></cc:Work></rdf:RDF></metadata><defs
   id="defs1608">
	
	
</defs><sodipodi:namedview
   inkscape:current-layer="Layer_1"
   inkscape:window-maximized="1"
   inkscape:window-y="-8"
   inkscape:window-x="-8"
   inkscape:cy="128.17499"
   inkscape:cx="103.45387"
   inkscape:zoom="2.5685503"
   showgrid="false"
   id="namedview1606"
   inkscape:window-height="1017"
   inkscape:window-width="1920"
   inkscape:pageshadow="2"
   inkscape:pageopacity="0"
   guidetolerance="10"
   gridtolerance="10"
   objecttolerance="10"
   borderopacity="1"
   bordercolor="#666666"
   pagecolor="#ffffff"
   inkscape:document-rotation="0" />
<style
   id="style1591"
   type="text/css">
	.st0{fill:#001E36;}
	.st1{fill:#31A8FF;}
</style>
<g
   transform="matrix(1.4046444,0,0,1.4046444,-57.271991,-44.427143)"
   style="fill:#bfbfbf;fill-opacity:1"
   id="Outlined_Mnemonics_Logos">
		<g
   style="fill:#bfbfbf;fill-opacity:1"
   id="Ps">
			<path
   style="fill:#bfbfbf;fill-opacity:1"
   class="st1"
   d="M 54,164.1 V 61.2 c 0,-0.7 0.3,-1.1 1,-1.1 1.7,0 3.3,0 5.6,-0.1 2.4,-0.1 4.9,-0.1 7.6,-0.2 2.7,-0.1 5.6,-0.1 8.7,-0.2 3.1,-0.1 6.1,-0.1 9.1,-0.1 8.2,0 15,1 20.6,3.1 5,1.7 9.6,4.5 13.4,8.2 3.2,3.2 5.7,7.1 7.3,11.4 1.5,4.2 2.3,8.5 2.3,13 0,8.6 -2,15.7 -6,21.3 -4,5.6 -9.6,9.8 -16.1,12.2 -6.8,2.5 -14.3,3.4 -22.5,3.4 -2.4,0 -4,0 -5,-0.1 -1,-0.1 -2.4,-0.1 -4.3,-0.1 V 164 c 0.1,0.7 -0.4,1.3 -1.1,1.4 -0.1,0 -0.2,0 -0.4,0 h -19 C 54.4,165.4 54,165 54,164.1 Z M 75.8,79.4 V 113 c 1.4,0.1 2.7,0.2 3.9,0.2 H 85 c 3.9,0 7.8,-0.6 11.5,-1.8 3.2,-0.9 6,-2.8 8.2,-5.3 2.1,-2.5 3.1,-5.9 3.1,-10.3 0.1,-3.1 -0.7,-6.2 -2.3,-8.9 -1.7,-2.6 -4.1,-4.6 -7,-5.7 -3.7,-1.5 -7.7,-2.1 -11.8,-2 -2.6,0 -4.9,0 -6.8,0.1 -2,-0.1 -3.4,0 -4.1,0.1 z"
   id="path1598" />
			<path
   style="fill:#bfbfbf;fill-opacity:1"
   class="st1"
   d="m 192,106.9 c -3,-1.6 -6.2,-2.7 -9.6,-3.4 -3.7,-0.8 -7.4,-1.3 -11.2,-1.3 -2,-0.1 -4.1,0.2 -6,0.7 -1.3,0.3 -2.4,1 -3.1,2 -0.5,0.8 -0.8,1.8 -0.8,2.7 0,0.9 0.4,1.8 1,2.6 0.9,1.1 2.1,2 3.4,2.7 2.3,1.2 4.7,2.3 7.1,3.3 5.4,1.8 10.6,4.3 15.4,7.3 3.3,2.1 6,4.9 7.9,8.3 1.6,3.2 2.4,6.7 2.3,10.3 0.1,4.7 -1.3,9.4 -3.9,13.3 -2.8,4 -6.7,7.1 -11.2,8.9 -4.9,2.1 -10.9,3.2 -18.1,3.2 -4.6,0 -9.1,-0.4 -13.6,-1.3 -3.5,-0.6 -7,-1.7 -10.2,-3.2 -0.7,-0.4 -1.2,-1.1 -1.1,-1.9 v -17.4 c 0,-0.3 0.1,-0.7 0.4,-0.9 0.3,-0.2 0.6,-0.1 0.9,0.1 3.9,2.3 8,3.9 12.4,4.9 3.8,1 7.8,1.5 11.8,1.5 3.8,0 6.5,-0.5 8.3,-1.4 1.6,-0.7 2.7,-2.4 2.7,-4.2 0,-1.4 -0.8,-2.7 -2.4,-4 -1.6,-1.3 -4.9,-2.8 -9.8,-4.7 -5.1,-1.8 -9.8,-4.2 -14.2,-7.2 -3.1,-2.2 -5.7,-5.1 -7.6,-8.5 -1.6,-3.2 -2.4,-6.7 -2.3,-10.2 0,-4.3 1.2,-8.4 3.4,-12.1 2.5,-4 6.2,-7.2 10.5,-9.2 4.7,-2.4 10.6,-3.5 17.7,-3.5 4.1,0 8.3,0.3 12.4,0.9 3,0.4 5.9,1.2 8.6,2.3 0.4,0.1 0.8,0.5 1,0.9 0.1,0.4 0.2,0.8 0.2,1.2 v 16.3 c 0,0.4 -0.2,0.8 -0.5,1 -0.9,0.2 -1.4,0.2 -1.8,0 z"
   id="path1600" />
		</g>
	</g>
</svg>
